# xmcd
#
# Track frame offsets: 
#        150
#        9986
#        19767
#        31002
#        42848
#        54038
#        64394
#        76010
#        84065
#        94595
#        104533
#        113563
#        125781
#        142353
#        150660
#        165467
#        177124
#        186967
#        196038
#        206547
#        217107
#        226649
#        236248
#        243359
#        254813
#        265764
#        275304
#        284647
#
# Disc length: 3911 seconds
#
# Revision: 1
# Processed by: cddbd v1.5.2PL0 Copyright (c) Steve Scherf et al.
# Submitted via: ExactAudioCopyFreeDBPlugin 1.0
#
DISCID=7b0f451c
DTITLE=Various Artist - By the Bayou [Ace Records]
DYEAR=2015
DGENRE=Rhythm and Blues
TTITLE0=Jeff Daniels - Switch Blade Sam
TTITLE1=Al "Puddler" Harris - Saw My Baby Walkin'
TTITLE2=Richard Bros - Gonna Work
TTITLE3=Warren Storm - Mama Mama Mama Look What Your Little Boy's Done
TTITLE4=Joe Carl and the Dukes Of Rhythm - Rockin' Fever
TTITLE5=Danny - Bad Luck
TTITLE6=Tony Perreau - Mickey Lee
TTITLE7=Johnny Jano - Havin' a Whole Lotta Fun
TTITLE8=Ken Lindsey - Rock Me Mama
TTITLE9=Al Ferrier - You Win Again
TTITLE10=Dayward Penny - Come Back Baby
TTITLE11=Al Ferrier - She Left Me
TTITLE12=Bennie Fruge - Bayou Boogie
TTITLE13=Vorris (Shorty) LeBlanc and All The Sugar Bees - Good Morning B
TTITLE13=lues (ft Jay Stutes, vocals)
TTITLE14=Nathan Abshire and The Pine Grove Boys - Popcorn Blues
TTITLE15=Benny Fruge - She's Mine, She's Yours
TTITLE16=Little Carol - You're Happy Now
TTITLE17=Billy Blank - Hard Luck
TTITLE18=Jeff Daniels - Uh-Huh-Huh
TTITLE19=Jivin' Gene - You're Jealous
TTITLE20=Rocket Morgan - Take Your Choice
TTITLE21=Johnny Jano - Stop, Look and Listen
TTITLE22=Erwin Babin - Boppin' Blues
TTITLE23=Al Ferrier - Love Me Baby (Kiss Me Baby)
TTITLE24=Johnnie Allan and The Krazy Kats - I'll Be Waiting
TTITLE25=Charles Page - Sweet Little Girl
TTITLE26=Frankie Lowery - On the Corner of the Street
TTITLE27=Collay and The Satellites - Little Girl Next Door
EXTD=
EXTT0=
EXTT1=
EXTT2=
EXTT3=
EXTT4=
EXTT5=
EXTT6=
EXTT7=
EXTT8=
EXTT9=
EXTT10=
EXTT11=
EXTT12=
EXTT13=
EXTT14=
EXTT15=
EXTT16=
EXTT17=
EXTT18=
EXTT19=
EXTT20=
EXTT21=
EXTT22=
EXTT23=
EXTT24=
EXTT25=
EXTT26=
EXTT27=
PLAYORDER=
